# Exported from Wings 3D 1.5.3
mtllib world.mtl
o Cube2
#8 vertices, 6 faces
v 8.17483908 -68.23928849 -384.47949033
v 8.17483908 -68.23928849 -242.70749033
v 8.17483908 73.53271151 -384.47949033
v 8.17483908 73.53271151 -242.70749033
v 149.94683908 -68.23928849 -384.47949033
v 149.94683908 -68.23928849 -242.70749033
v 149.94683908 73.53271151 -384.47949033
v 149.94683908 73.53271151 -242.70749033
vt 0.34459400 0.34459400
vt 0.34459400 0.65540600
vt 0.34459400 0.34459400
vt 0.34459400 0.34459400
vt 0.34459400 0.34459400
vt 0.34459400 0.65540600
vt 0.34507762 0.34507762
vt 0.34507762 0.65492238
vt 0.65492238 0.34507762
vt 0.65492238 0.65492238
vt 0.65540600 0.65540600
vt 0.65540600 0.34459400
vt 0.65540600 0.34459400
vt 0.65540600 0.65540600
vt 0.65540600 0.34459400
vt 0.65540600 0.65540600
vn -0.57735027 -0.57735027 -0.57735027
vn -0.57735027 -0.57735027 0.57735027
vn -0.57735027 0.57735027 -0.57735027
vn -0.57735027 0.57735027 0.57735027
vn 0.57735027 -0.57735027 -0.57735027
vn 0.57735027 -0.57735027 0.57735027
vn 0.57735027 0.57735027 -0.57735027
vn 0.57735027 0.57735027 0.57735027
g Cube2_MyMaterial
usemtl MyMaterial
s 1
f 1/16/1 5/6/5 6/5/6 2/15/2
f 2/9/2 4/10/4 3/8/3 1/7/1
f 2/3/2 6/12/6 8/14/8 4/2/4
f 3/14/3 7/2/7 5/3/5 1/12/1
f 4/4/4 8/13/8 7/11/7 3/2/3
f 5/12/5 7/14/7 8/2/8 6/1/6
o Cube1
#8 vertices, 6 faces
v -507.01208264 -110.93579501 -507.01208264
v -507.01208264 -110.93579501 507.01208264
v -507.01208264 110.93579501 -507.01208264
v -507.01208264 110.93579501 507.01208264
v 507.01208264 -110.93579501 -507.01208264
v 507.01208264 -110.93579501 507.01208264
v 507.01208264 110.93579501 -507.01208264
v 507.01208264 110.93579501 507.01208264
vt 0.0000000e+0 2.2204460e-16
vt 0.0000000e+0 0.39059847
vt 0.0000000e+0 0.39059847
vt 0.0000000e+0 0.60940153
vt 2.2204460e-16 1.00000000
vt 2.2204460e-16 0.0000000e+0
vt 2.2204460e-16 1.00000000
vt 1.00000000 0.0000000e+0
vt 1.00000000 0.0000000e+0
vt 1.00000000 0.39059847
vt 1.00000000 0.60940153
vt 1.00000000 0.60940153
vt 1.00000000 1.00000000
vt 1.00000000 1.00000000
vn 0.57735027 0.57735027 0.57735027
vn 0.57735027 0.57735027 -0.57735027
vn 0.57735027 -0.57735027 0.57735027
vn 0.57735027 -0.57735027 -0.57735027
vn -0.57735027 0.57735027 0.57735027
vn -0.57735027 0.57735027 -0.57735027
vn -0.57735027 -0.57735027 0.57735027
vn -0.57735027 -0.57735027 -0.57735027
g Cube1_MyMaterial
usemtl MyMaterial
s 1
f 9/26/9 11/28/11 12/20/12 10/18/10
f 9/18/9 13/26/13 15/28/15 11/20/11
f 10/22/10 14/25/14 13/30/13 9/23/9
f 11/29/11 15/21/15 16/17/16 12/24/12
f 12/27/12 16/20/16 14/19/14 10/26/10
f 14/26/14 16/28/16 15/20/15 13/18/13
